<?xml version="1.0" encoding="UTF-8"?>
<svg width="16px" height="16px" viewBox="0 0 16 16" version="1.1" xmlns="http://www.w3.org/2000/svg" xmlns:xlink="http://www.w3.org/1999/xlink">
    <title>复制</title>
    <g id="行情" stroke="none" stroke-width="1" fill="none" fill-rule="evenodd">
        <g id="行情页面弹窗" transform="translate(-858.000000, -1365.000000)" fill-rule="nonzero">
            <g id="连接钱包备份" transform="translate(558.000000, 1207.000000)">
                <g id="编组-40" transform="translate(24.000000, 132.000000)">
                    <g id="编组-23" transform="translate(276.000000, 25.000000)">
                        <g id="复制" transform="translate(0.000000, 1.000000)">
                            <rect id="矩形" fill="#000000" opacity="0" x="0" y="0" width="16" height="16"></rect>
                            <path d="M6.2631579,2 L12.8947369,2 C13.5051568,2 14,2.49484317 14,3.10526315 L14,9.7368421 C14,10.3472621 13.5051568,10.8421053 12.8947369,10.8421053 L6.2631579,10.8421053 C5.65273791,10.8421053 5.15789473,10.3472621 5.15789473,9.7368421 L5.15789473,3.10526315 C5.15789473,2.49484316 5.65273791,2 6.2631579,2 Z M6.2631579,2.94736842 C6.17595505,2.94736842 6.10526316,3.0180603 6.10526316,3.10526315 L6.10526316,9.7368421 C6.10526316,9.82404496 6.17595504,9.89473684 6.2631579,9.89473684 L12.8947369,9.89473684 C12.9819397,9.89473684 13.0526316,9.82404495 13.0526316,9.7368421 L13.0526316,3.10526315 C13.0526316,3.0180603 12.9819397,2.94736842 12.8947369,2.94736842 L6.2631579,2.94736842 Z M9.89473684,11.7894737 C9.89473684,11.5278651 10.1068125,11.3157895 10.3684211,11.3157895 C10.6300296,11.3157895 10.8421053,11.5278651 10.8421053,11.7894737 L10.8421053,12.8947369 C10.8421053,13.5051568 10.3472621,14 9.7368421,14 L3.10526315,14 C2.49484317,14 2,13.5051568 2,12.8947369 L2,6.2631579 C2,5.65273791 2.49484316,5.15789473 3.10526315,5.15789473 L4.21052631,5.15789473 C4.47213488,5.15789473 4.68421052,5.36997038 4.68421052,5.63157895 C4.68421052,5.89318751 4.47213488,6.10526316 4.21052631,6.10526316 L3.10526315,6.10526316 C3.0180603,6.10526316 2.94736842,6.17595505 2.94736842,6.2631579 L2.94736842,12.8947369 C2.94736843,12.9819397 3.0180603,13.0526316 3.10526315,13.0526316 L9.7368421,13.0526316 C9.82404495,13.0526316 9.89473684,12.9819397 9.89473684,12.8947369 L9.89473684,11.7894737 Z" id="形状" fill="currentColor"></path>
                        </g>
                    </g>
                </g>
            </g>
        </g>
    </g>
</svg>