<?xml version="1.0" encoding="UTF-8"?>
<svg width="16px" height="16px" viewBox="0 0 16 16" version="1.1" xmlns="http://www.w3.org/2000/svg" xmlns:xlink="http://www.w3.org/1999/xlink">
    <title>链接</title>
    <g id="行情" stroke="none" stroke-width="1" fill="none" fill-rule="evenodd">
        <g id="行情页面弹窗" transform="translate(-602.000000, -1413.000000)" fill-rule="nonzero">
            <g id="连接钱包备份" transform="translate(558.000000, 1207.000000)">
                <g id="编组-40" transform="translate(24.000000, 132.000000)">
                    <g id="编组-24" transform="translate(20.000000, 72.000000)">
                        <g id="链接" transform="translate(0.000000, 2.000000)">
                            <rect id="矩形" fill="#000000" opacity="0" x="0" y="0" width="16" height="16"></rect>
                            <path d="M12.8751562,2.3075 L12.8442187,2.2765625 C11.2076562,0.63984375 8.5440625,0.63953125 6.906875,2.2765625 L2.3303125,6.85328125 C2.14078125,7.0428125 2.14078125,7.35 2.3303125,7.539375 C2.51984375,7.72890625 2.826875,7.72890625 3.01640625,7.539375 L7.59296875,2.96265625 C8.8515625,1.70390625 10.8992187,1.70421875 12.1579687,2.96265625 L12.1889062,2.99359375 C13.4473437,4.2521875 13.4473437,6.30015625 12.1889062,7.55859375 L10.5104687,9.23703125 L9.995625,9.764375 L6.35296875,13.4065625 C5.58125,14.1779687 4.32578125,14.1779687 3.554375,13.4065625 L3.4490625,13.30125 C3.0753125,12.9273438 2.86953125,12.4304687 2.86953125,11.901875 C2.86953125,11.3734375 3.07546875,10.8764063 3.44921875,10.5026563 L5.15984375,8.7921875 C5.1603125,8.79171875 5.16109375,8.7915625 5.1615625,8.79109375 L8.3684375,5.584375 C8.688125,5.26484375 9.2084375,5.2646875 9.5278125,5.58421875 C9.84765625,5.9040625 9.84765625,6.424375 9.52796875,6.7440625 L6.02828125,10.2432813 C5.83875,10.4326563 5.83875,10.7398438 6.02828125,10.929375 C6.12296875,11.0242188 6.2471875,11.0715625 6.37140625,11.0715625 C6.495625,11.0715625 6.6196875,11.0242188 6.71453125,10.929375 L10.2140625,7.43015625 C10.9120313,6.7321875 10.9121875,5.59640625 10.2140625,4.89796875 C9.51609375,4.20046875 8.380625,4.200625 7.68234375,4.898125 L6.65578125,5.92453125 C6.6553125,5.925 6.6546875,5.92515625 6.65421875,5.925625 L2.76296875,9.81640625 C1.61296875,10.9660938 1.6128125,12.8373438 2.7628125,13.9873438 L2.868125,14.0926563 C3.443125,14.6678125 4.19828125,14.955 4.95359375,14.955 C5.70875,14.955 6.4640625,14.6675 7.0390625,14.0926563 L10.6684375,10.46375 C10.6689062,10.4632813 10.6695313,10.463125 10.67,10.4626563 L10.7517188,10.3804688 L10.7554688,10.3767188 L12.8751562,8.24484375 C14.511875,6.6078125 14.511875,3.944375 12.8751562,2.3075 Z" id="路径" fill="#2483FF"></path>
                        </g>
                    </g>
                </g>
            </g>
        </g>
    </g>
</svg>